<?xml version="1.0" encoding="UTF-8" standalone="no"?>
<!DOCTYPE svg PUBLIC "-//W3C//DTD SVG 1.1//EN" "http://www.w3.org/Graphics/SVG/1.1/DTD/svg11.dtd">
<svg xmlns="http://www.w3.org/2000/svg" version="1.1" viewBox="0.00 0.00 1619.00 621.00">
<path fill="#402012" d="
  M 726.87 0.00
  L 872.81 0.00
  C 886.70 0.78 899.49 2.98 919.75 5.88
  Q 938.79 8.60 951.20 22.51
  C 955.55 27.39 956.52 32.76 957.35 40.75
  Q 957.60 43.19 960.04 46.57
  Q 961.45 48.52 961.87 50.49
  Q 963.14 56.36 964.15 62.27
  Q 964.90 66.67 964.99 73.25
  C 965.07 79.07 965.77 85.62 965.97 90.59
  C 966.48 103.38 967.41 116.38 967.08 129.17
  C 966.95 133.90 967.14 139.17 966.04 143.56
  Q 963.49 153.72 957.42 162.29
  C 955.75 164.65 952.92 165.90 950.25 165.75
  Q 941.24 165.25 928.26 162.48
  C 925.64 161.92 921.49 162.73 919.25 162.83
  C 906.97 163.34 894.25 164.78 886.74 154.02
  C 880.87 145.60 874.36 139.06 865.62 133.73
  Q 861.84 131.43 849.96 126.56
  Q 834.69 120.30 816.69 110.74
  Q 802.36 103.12 784.50 103.95
  Q 762.97 104.93 741.95 109.58
  C 735.97 110.90 732.16 110.89 727.35 115.40
  C 723.63 118.89 719.38 123.89 714.67 125.89
  Q 709.29 128.17 704.72 131.74
  Q 701.69 134.10 698.58 136.03
  Q 689.93 141.41 684.49 150.03
  C 682.27 153.56 680.18 158.66 677.90 162.93
  C 673.54 171.06 664.56 170.08 656.49 169.82
  Q 637.83 169.21 619.25 167.52
  Q 614.53 167.09 605.24 166.93
  C 596.05 166.77 591.48 154.78 590.99 147.25
  Q 589.84 129.69 592.42 106.99
  C 593.14 100.63 593.11 91.71 593.04 83.34
  Q 592.83 57.90 594.50 32.51
  Q 594.54 31.99 595.05 31.93
  L 596.23 31.79
  A 0.65 0.64 -5.1 0 0 596.81 31.11
  C 596.39 24.16 598.40 13.76 606.49 13.02
  Q 618.05 11.97 629.53 10.27
  Q 640.21 8.68 648.50 9.29
  C 654.66 9.74 659.07 10.03 665.22 8.42
  Q 677.13 5.32 689.43 4.70
  C 699.10 4.22 707.59 2.44 716.72 0.89
  C 719.94 0.34 723.49 0.37 726.87 0.00
  Z
  M 794.49 87.03
  C 796.33 82.09 799.02 77.56 800.19 72.14
  Q 800.71 69.73 802.01 67.14
  C 803.52 64.10 808.17 48.92 802.26 48.21
  C 797.94 47.69 792.53 48.78 788.58 48.85
  Q 774.04 49.11 759.50 49.02
  Q 756.10 48.99 753.47 50.03
  A 2.37 2.37 0.0 0 0 752.13 53.08
  Q 755.58 62.06 761.29 70.23
  Q 762.74 72.31 764.83 80.18
  Q 765.92 84.32 767.19 85.79
  C 770.32 89.43 776.94 89.43 781.34 88.84
  Q 787.29 88.04 793.22 87.92
  A 1.37 1.37 0.0 0 0 794.49 87.03
  Z
  M 854.73 72.36
  C 851.36 70.02 847.63 68.60 843.98 66.87
  C 838.46 64.25 831.66 63.19 825.73 61.68
  C 822.84 60.95 820.47 61.82 820.24 65.00
  Q 819.60 73.73 817.80 81.00
  C 816.98 84.36 816.92 86.89 817.09 90.16
  A 1.60 1.60 0.0 0 0 818.52 91.67
  C 829.91 92.81 837.66 97.22 847.39 103.37
  Q 848.57 104.12 849.42 103.02
  Q 850.11 102.15 850.74 100.24
  Q 853.07 93.09 855.68 86.04
  C 857.90 80.05 860.22 76.18 854.73 72.36
  Z
  M 707.15 96.83
  C 712.02 105.97 716.66 100.61 722.31 97.14
  C 729.56 92.68 737.27 90.96 745.72 92.53
  A 0.81 0.81 0.0 0 0 746.64 91.49
  Q 744.28 83.98 740.59 77.76
  C 738.79 74.73 739.16 71.60 737.03 68.82
  Q 734.76 65.86 732.33 63.35
  A 2.21 2.21 0.0 0 0 729.10 63.40
  Q 725.23 67.66 719.44 69.07
  C 714.76 70.21 711.83 72.72 707.74 75.58
  Q 702.21 79.44 702.06 86.11
  C 701.99 88.98 703.21 90.31 704.72 92.55
  Q 705.45 93.64 707.15 96.83
  Z
  M 878.41 123.65
  Q 884.50 128.74 891.14 133.19
  C 895.76 136.29 903.23 135.02 908.16 133.42
  C 913.80 131.60 918.52 129.93 915.81 122.54
  Q 912.96 114.74 908.64 107.65
  C 906.03 103.37 892.48 88.84 885.47 91.04
  Q 883.85 91.55 882.52 93.89
  C 879.68 98.90 870.87 113.13 871.96 118.49
  C 872.61 121.71 876.20 121.80 878.41 123.65
  Z
  M 654.67 127.94
  Q 652.93 131.66 652.31 139.74
  Q 652.11 142.39 653.30 143.96
  Q 654.75 145.87 657.09 146.96
  Q 657.57 147.19 658.07 146.97
  C 665.11 143.89 669.86 138.71 675.70 132.84
  C 678.65 129.89 681.45 128.55 685.23 127.39
  C 687.44 126.71 689.18 125.81 690.42 124.15
  A 2.23 2.22 43.9 0 0 690.36 121.39
  C 687.04 117.32 684.67 112.33 681.01 108.90
  Q 678.48 106.54 675.76 104.34
  C 672.82 101.96 670.49 102.37 668.34 105.32
  Q 659.65 117.27 654.67 127.94
  Z"
/>
<path fill="#402012" d="
  M 585.75 156.01
  C 590.43 161.81 587.89 167.15 580.60 167.00
  C 569.38 166.78 558.02 165.15 547.15 165.39
  C 536.82 165.61 526.78 166.26 516.13 164.60
  Q 506.85 163.17 502.54 160.12
  C 494.06 154.13 493.57 143.54 494.46 133.51
  Q 496.02 115.92 496.15 98.25
  Q 496.18 93.56 499.23 84.04
  C 504.90 66.34 519.81 64.00 536.25 64.34
  Q 550.58 64.64 572.74 64.01
  Q 577.52 63.87 582.68 66.19
  Q 583.15 66.40 583.30 66.88
  Q 584.47 70.47 584.63 74.49
  C 585.09 85.95 584.18 96.88 584.63 108.00
  C 585.27 123.71 584.35 139.34 585.38 155.06
  Q 585.41 155.59 585.75 156.01
  Z"
/>
<path fill="#402012" d="
  M 973.56 90.28
  Q 969.68 86.48 971.59 80.92
  Q 971.75 80.43 972.26 80.34
  C 976.94 79.47 981.53 77.29 986.50 76.74
  C 1000.78 75.17 1014.98 76.84 1029.26 77.57
  C 1038.66 78.05 1056.07 79.84 1061.44 89.74
  C 1063.92 94.31 1064.16 99.92 1063.95 105.85
  Q 1062.91 134.79 1062.61 163.75
  C 1062.55 169.98 1056.71 170.90 1052.00 171.01
  Q 1029.41 171.52 1006.86 170.23
  Q 996.78 169.66 992.37 167.93
  C 985.60 165.27 978.42 159.04 977.68 151.26
  Q 974.78 120.79 974.64 93.25
  C 974.64 91.83 974.65 91.34 973.56 90.28
  Z"
/>
<path fill="#402012" d="
  M 872.12 158.71
  C 875.19 157.71 877.30 155.94 880.94 156.91
  Q 881.44 157.04 881.60 157.53
  Q 882.91 161.47 881.72 163.51
  C 870.85 182.08 843.28 180.60 824.76 177.50
  Q 807.48 174.61 795.54 171.12
  Q 768.65 163.25 740.74 160.54
  Q 731.02 159.59 721.24 160.18
  C 716.35 160.47 713.41 161.56 709.33 164.88
  C 703.19 169.86 695.92 173.26 688.38 169.26
  C 682.63 166.21 686.95 161.83 690.99 160.50
  Q 700.36 157.43 709.72 154.33
  Q 711.50 153.74 712.96 152.26
  Q 721.25 143.89 732.30 143.06
  Q 736.95 142.71 755.49 142.37
  Q 770.45 142.09 783.27 145.11
  Q 787.86 146.19 797.18 149.62
  C 807.26 153.33 813.94 155.74 824.05 157.01
  Q 849.65 160.21 856.74 160.73
  Q 864.17 161.29 872.12 158.71
  Z"
/>
<path fill="#402012" d="
  M 1591.58 437.55
  Q 1582.68 460.96 1569.63 480.15
  C 1551.26 507.15 1528.03 529.32 1499.45 545.47
  C 1420.86 589.90 1321.51 580.03 1255.40 517.73
  Q 1231.72 495.42 1217.02 469.99
  Q 1210.58 458.84 1202.87 440.76
  C 1188.85 407.88 1185.41 371.86 1189.36 336.65
  C 1192.93 304.83 1205.46 273.06 1222.62 246.24
  C 1248.53 205.76 1288.51 176.84 1334.51 162.71
  Q 1344.92 159.51 1361.53 156.85
  Q 1430.60 145.78 1491.68 176.56
  C 1524.69 193.19 1553.51 219.22 1573.21 249.81
  Q 1588.01 272.80 1596.87 302.56
  Q 1617.09 370.49 1591.58 437.55
  Z
  M 1213.65 286.13
  C 1211.17 291.92 1209.55 295.56 1208.03 300.51
  Q 1183.62 379.86 1218.60 452.97
  Q 1222.87 461.90 1228.38 470.39
  C 1257.98 516.08 1304.77 546.94 1357.91 557.92
  C 1389.97 564.54 1426.14 562.69 1457.35 552.69
  Q 1515.69 533.99 1553.53 486.01
  C 1579.69 452.84 1593.99 412.78 1594.97 370.50
  Q 1596.68 296.17 1550.11 238.33
  C 1528.73 211.79 1500.97 192.16 1469.57 179.37
  C 1422.57 160.23 1365.62 160.88 1319.29 181.64
  Q 1293.11 193.36 1270.64 211.42
  C 1246.85 230.53 1225.78 257.86 1213.65 286.13
  Z"
/>
<path fill="#402012" d="
  M 1118.96 570.07
  C 1115.73 568.54 1116.02 564.93 1116.22 561.11
  C 1116.58 554.07 1116.99 547.05 1116.99 539.96
  Q 1116.99 385.10 1117.02 230.25
  Q 1117.02 221.76 1116.60 210.26
  Q 1115.69 185.64 1116.14 161.00
  Q 1116.19 158.45 1117.70 156.57
  A 1.24 1.21 16.0 0 1 1118.54 156.12
  C 1122.10 155.80 1130.98 154.39 1131.05 160.00
  Q 1131.42 188.26 1130.41 216.50
  Q 1130.01 227.71 1130.00 236.49
  Q 1130.00 386.50 1130.22 536.50
  Q 1130.25 556.75 1130.92 563.49
  C 1131.66 570.87 1124.26 572.57 1118.96 570.07
  Z"
/>
<path fill="#402012" d="
  M 62.11 212.07
  Q 57.83 224.41 60.60 236.47
  C 65.65 258.50 90.20 275.74 105.96 289.92
  C 120.70 303.20 132.76 314.01 142.60 328.46
  Q 159.52 353.29 156.03 383.17
  Q 154.86 393.23 151.89 402.71
  C 137.61 448.24 90.46 461.41 48.02 450.67
  Q 35.73 447.56 28.48 442.76
  Q 25.36 440.69 25.05 435.49
  C 24.12 419.94 26.15 403.87 27.48 388.25
  Q 27.65 386.31 28.61 384.67
  Q 28.90 384.18 29.47 384.14
  L 33.59 383.88
  A 1.35 1.34 88.6 0 1 35.02 385.25
  Q 34.72 399.12 39.63 411.19
  C 47.03 429.39 66.59 436.30 84.80 436.12
  C 105.29 435.92 122.02 423.49 127.26 403.68
  C 132.01 385.73 125.77 366.29 113.78 352.27
  C 108.72 346.35 104.20 341.42 98.27 336.04
  C 81.19 320.53 63.90 306.42 49.20 287.79
  Q 32.37 266.45 32.29 239.99
  Q 32.25 228.76 34.00 220.10
  C 37.78 201.40 51.06 185.10 68.53 177.34
  C 81.50 171.58 95.48 170.36 110.24 170.81
  Q 125.06 171.26 139.49 174.90
  C 142.92 175.77 146.28 175.96 149.67 176.26
  A 1.34 1.34 0.0 0 1 150.89 177.57
  Q 151.31 200.54 150.81 222.24
  C 150.70 226.80 147.29 232.79 141.92 228.91
  Q 139.44 227.11 139.22 224.01
  C 138.62 215.50 137.73 208.02 132.15 201.55
  C 124.62 192.81 113.85 189.43 102.39 188.33
  C 84.60 186.62 68.15 194.61 62.11 212.07
  Z"
/>
<path fill="#402012" d="
  M 744.56 181.21
  Q 748.17 178.98 751.99 176.93
  C 759.39 172.96 775.12 174.71 782.51 176.42
  Q 798.62 180.14 808.37 181.98
  Q 814.15 183.07 819.00 184.59
  C 833.36 189.08 851.82 195.16 866.73 190.24
  C 868.33 189.72 871.01 189.79 871.91 191.53
  C 873.60 194.76 866.40 197.46 864.16 197.78
  Q 855.98 198.92 849.25 198.97
  C 822.93 199.17 804.45 200.15 782.42 196.26
  C 773.46 194.68 762.09 191.03 754.01 189.27
  C 749.94 188.38 746.94 188.95 743.13 191.27
  C 737.06 194.97 725.35 199.79 718.56 197.20
  C 714.47 195.64 715.29 191.61 718.91 190.28
  Q 732.21 185.39 735.80 184.34
  Q 742.86 182.26 744.56 181.21
  Z"
/>
<path fill="#402012" d="
  M 776.93 220.40
  Q 765.58 219.88 754.19 219.95
  C 751.93 219.96 750.71 219.07 750.89 216.73
  C 751.08 214.21 755.02 214.07 756.91 213.77
  C 761.33 213.07 764.42 210.35 769.00 210.18
  Q 789.87 209.42 810.72 210.27
  Q 814.98 210.44 819.66 211.60
  C 825.25 212.98 830.89 214.80 836.71 213.84
  Q 837.21 213.75 837.52 213.35
  Q 840.55 209.34 845.47 208.77
  Q 847.34 208.56 848.34 209.63
  C 849.95 211.36 848.73 212.91 847.17 214.12
  C 844.11 216.49 841.39 219.90 837.23 219.94
  Q 832.19 220.00 827.16 220.32
  Q 826.65 220.36 826.23 220.65
  C 822.71 223.07 819.43 223.18 815.22 222.74
  C 804.72 221.64 794.14 224.16 783.80 221.57
  Q 779.63 220.53 776.93 220.40
  Z"
/>
<path fill="#402012" d="
  M 1276.46 419.89
  C 1280.03 420.32 1283.45 418.98 1286.56 418.99
  Q 1315.37 419.00 1344.22 418.99
  Q 1349.48 418.99 1351.91 417.59
  C 1357.61 414.30 1358.92 403.68 1359.98 397.63
  A 1.96 1.96 0.0 0 1 1361.91 396.00
  L 1371.36 396.04
  A 1.59 1.58 1.1 0 1 1372.94 397.67
  Q 1372.18 420.86 1369.96 443.98
  Q 1369.46 449.16 1364.51 449.15
  Q 1329.12 449.06 1293.74 449.00
  C 1277.85 448.97 1260.99 447.93 1244.57 447.96
  A 1.64 1.64 0.0 0 1 1242.93 446.32
  L 1242.93 430.84
  A 0.75 0.74 68.3 0 1 1243.16 430.30
  C 1248.76 424.77 1254.04 418.55 1259.45 413.38
  Q 1269.96 403.34 1280.37 393.19
  C 1286.87 386.85 1299.05 375.73 1307.85 366.35
  C 1320.62 352.73 1332.74 335.22 1336.29 316.99
  Q 1338.22 307.03 1336.42 298.76
  C 1333.13 283.64 1322.84 271.70 1307.11 269.23
  C 1289.87 266.52 1267.44 272.50 1262.92 292.10
  A 1.58 1.58 0.0 0 0 1264.58 294.03
  Q 1266.93 293.85 1269.29 293.34
  C 1283.98 290.20 1293.17 302.76 1289.08 316.27
  Q 1285.33 328.63 1271.50 328.17
  Q 1265.94 327.98 1263.10 326.56
  C 1254.22 322.14 1250.72 315.03 1249.82 305.07
  C 1247.02 274.02 1272.17 256.31 1299.75 252.67
  C 1317.84 250.28 1337.59 253.44 1352.91 263.79
  C 1367.95 273.94 1375.89 290.43 1374.05 308.60
  C 1372.67 322.30 1366.72 333.42 1357.56 343.81
  Q 1347.03 355.76 1341.33 361.08
  Q 1310.78 389.57 1278.71 416.34
  C 1277.84 417.07 1276.41 417.79 1275.96 419.08
  A 0.61 0.61 0.0 0 0 1276.46 419.89
  Z"
/>
<path fill="#402012" d="
  M 1521.08 412.07
  C 1513.18 429.33 1498.72 445.15 1480.48 451.06
  C 1463.10 456.69 1443.32 454.03 1428.93 442.05
  C 1411.02 427.13 1400.17 408.15 1395.43 385.53
  Q 1388.11 350.62 1396.59 315.47
  C 1403.23 287.90 1421.90 258.99 1452.00 254.00
  C 1503.03 245.54 1529.31 294.69 1531.80 337.50
  C 1533.37 364.32 1532.12 387.97 1521.08 412.07
  Z
  M 1493.37 307.54
  Q 1491.43 294.39 1485.88 281.61
  C 1480.95 270.28 1469.57 262.45 1457.20 266.09
  C 1442.72 270.36 1436.44 287.31 1433.81 300.84
  C 1429.03 325.39 1429.42 350.63 1430.32 376.50
  C 1430.88 392.32 1433.37 423.25 1447.90 434.06
  C 1457.31 441.06 1470.44 440.90 1479.16 432.47
  C 1493.24 418.84 1494.18 391.87 1495.28 373.51
  Q 1496.66 350.49 1495.13 327.47
  Q 1494.14 312.77 1493.37 307.54
  Z"
/>
<path fill="#402012" d="
  M 358.08 324.05
  Q 352.07 337.77 351.93 353.99
  C 351.75 375.41 354.66 393.27 366.46 411.15
  Q 380.65 432.65 406.80 437.52
  Q 414.86 439.02 417.40 439.94
  Q 423.66 442.19 429.14 445.82
  A 2.43 2.43 0.0 0 1 429.67 449.40
  Q 428.53 450.78 426.26 451.07
  C 399.47 454.44 374.45 449.51 353.79 432.55
  C 333.90 416.22 324.40 388.86 324.52 363.49
  Q 324.54 359.46 326.21 350.10
  C 330.27 327.45 342.06 308.02 360.23 293.96
  C 378.55 279.78 402.11 276.21 425.00 278.38
  C 461.13 281.80 493.07 305.61 498.98 343.30
  C 503.34 371.08 497.66 397.67 479.39 418.93
  C 475.85 423.05 469.02 419.36 464.86 417.47
  Q 462.46 416.38 463.56 413.98
  C 466.69 407.12 470.05 399.57 471.60 392.24
  C 477.66 363.76 473.62 328.79 451.96 307.20
  C 434.49 289.78 408.64 285.79 385.78 295.70
  Q 366.91 303.87 358.08 324.05
  Z"
/>
<path fill="#402012" d="
  M 880.22 385.29
  Q 879.01 384.92 877.50 384.91
  Q 857.63 384.89 837.74 384.95
  C 835.04 384.96 834.36 387.43 833.42 390.15
  Q 824.48 416.04 821.42 424.20
  Q 819.44 429.47 818.75 434.61
  C 817.76 441.91 824.58 441.75 829.43 442.22
  A 1.32 1.31 -18.0 0 1 830.28 442.65
  C 832.00 444.56 831.20 448.18 828.15 447.93
  C 823.74 447.58 819.20 447.85 814.77 447.74
  C 804.38 447.49 794.03 448.22 783.63 447.96
  C 780.25 447.87 778.49 448.09 779.04 443.88
  A 2.29 2.28 -83.0 0 1 781.57 441.90
  C 795.58 443.49 801.91 432.62 805.93 420.69
  Q 829.46 350.78 855.50 281.77
  C 857.13 277.44 863.44 275.75 865.51 280.73
  C 884.89 327.31 906.40 387.94 919.54 421.99
  Q 921.09 426.02 925.35 432.41
  Q 930.43 440.03 939.30 441.66
  C 941.06 441.98 943.42 441.90 945.31 442.24
  A 2.34 2.33 -83.2 0 1 947.22 444.68
  C 947.06 447.38 946.19 447.85 943.58 447.89
  Q 925.62 448.17 907.68 447.84
  C 905.16 447.79 902.58 447.23 900.01 446.94
  Q 897.90 446.69 899.18 444.09
  Q 900.10 442.24 901.37 441.13
  A 2.02 2.00 59.0 0 0 901.92 438.89
  L 881.26 386.26
  Q 880.98 385.52 880.22 385.29
  Z
  M 875.82 371.74
  L 857.41 321.29
  A 0.17 0.17 0.0 0 0 857.09 321.30
  L 840.20 371.94
  A 0.80 0.79 -80.7 0 0 840.95 372.99
  L 874.94 373.00
  A 0.94 0.94 0.0 0 0 875.82 371.74
  Z"
/>
<path fill="#402012" d="
  M 242.69 366.04
  A 0.75 0.75 0.0 0 0 241.97 366.80
  Q 242.21 384.20 241.42 401.76
  Q 240.73 417.21 242.34 427.46
  C 244.19 439.23 270.81 436.27 278.76 434.82
  C 288.96 432.95 290.38 425.72 292.27 416.50
  C 292.75 414.17 297.60 414.78 299.25 415.55
  A 1.00 1.00 0.0 0 1 299.82 416.29
  Q 300.36 419.53 300.08 424.25
  Q 299.42 435.43 297.67 443.28
  C 296.34 449.29 291.75 450.12 285.95 450.03
  C 261.51 449.68 236.26 447.73 212.50 448.98
  Q 208.41 449.19 204.55 447.89
  A 0.80 0.79 -81.2 0 1 204.02 447.15
  L 203.97 442.83
  Q 203.96 442.26 204.53 442.20
  Q 207.21 441.91 212.23 440.75
  Q 215.41 440.02 216.08 437.22
  Q 217.95 429.47 217.96 421.50
  Q 218.02 362.13 218.00 302.75
  C 217.99 292.79 213.92 289.93 204.58 288.98
  C 200.81 288.59 198.99 286.46 200.11 282.73
  C 200.63 280.97 202.13 281.07 203.74 281.05
  Q 219.14 280.87 234.52 281.57
  C 250.79 282.30 266.04 281.36 281.85 280.62
  C 285.50 280.45 289.40 278.98 293.43 279.11
  Q 294.60 279.15 294.79 280.31
  Q 295.16 282.49 294.78 284.99
  Q 293.36 294.23 292.85 305.00
  Q 292.73 307.70 291.64 310.34
  C 290.63 312.82 287.94 313.97 285.76 312.37
  Q 284.36 311.34 284.07 308.47
  C 283.68 304.67 283.10 299.61 279.97 297.75
  Q 276.22 295.52 269.25 295.22
  Q 257.35 294.70 245.03 293.92
  Q 242.01 293.73 242.01 296.76
  L 242.03 351.77
  A 1.16 1.16 0.0 0 0 243.17 352.93
  Q 259.41 353.20 275.25 352.71
  C 279.14 352.59 281.81 350.30 284.81 347.96
  C 287.13 346.15 290.46 346.55 291.59 349.36
  Q 292.18 350.83 291.66 353.66
  Q 289.11 367.63 288.95 381.93
  A 1.96 1.96 0.0 0 1 287.56 383.79
  Q 283.99 384.90 281.63 382.39
  A 1.77 1.73 22.1 0 1 281.16 381.31
  C 280.47 369.71 277.00 367.95 266.17 366.88
  Q 254.35 365.70 242.69 366.04
  Z"
/>
<path fill="#402012" d="
  M 977.17 281.01
  C 988.37 281.10 1000.36 280.71 1010.50 281.06
  C 1013.58 281.16 1015.12 285.33 1013.19 287.49
  C 1010.33 290.70 1003.31 287.91 999.62 291.73
  C 997.31 294.14 996.97 299.54 996.97 302.75
  Q 997.00 352.70 997.01 402.64
  Q 997.02 410.38 997.23 415.36
  Q 997.62 424.39 998.35 428.03
  C 1000.01 436.31 1013.30 437.10 1020.01 436.98
  Q 1036.49 436.69 1040.68 435.66
  C 1050.18 433.31 1051.84 426.92 1054.14 418.61
  Q 1054.69 416.65 1055.37 415.82
  C 1058.38 412.15 1062.22 414.78 1062.14 418.74
  Q 1061.90 430.77 1058.41 442.24
  C 1056.45 448.66 1051.86 449.16 1045.44 449.04
  Q 1020.05 448.56 994.68 447.64
  C 984.58 447.27 973.56 448.13 962.93 448.00
  Q 960.38 447.97 959.45 446.68
  Q 958.31 445.11 959.16 442.61
  Q 959.32 442.16 959.79 442.13
  C 963.24 441.93 967.87 441.72 970.28 439.27
  Q 972.70 436.81 972.79 432.75
  Q 973.30 409.63 973.91 386.50
  Q 974.86 350.94 972.98 301.60
  C 972.75 295.75 972.81 291.74 966.86 290.15
  Q 962.34 288.95 957.75 288.88
  C 954.82 288.83 954.01 283.27 956.77 281.71
  Q 957.86 281.09 960.34 281.06
  Q 968.76 280.94 977.17 281.01
  Z"
/>
<path fill="#402012" d="
  M 547.56 281.11
  L 573.19 280.99
  A 1.52 1.50 79.5 0 1 574.62 281.99
  Q 575.83 285.29 573.83 288.00
  A 1.59 1.56 -77.0 0 1 572.89 288.60
  C 568.92 289.40 564.79 289.29 562.43 291.94
  C 560.96 293.60 560.14 299.54 560.12 302.46
  Q 559.78 351.83 560.06 383.75
  C 560.26 407.84 568.33 432.52 595.01 438.67
  Q 608.40 441.75 621.80 436.37
  C 638.30 429.74 646.00 415.32 648.10 398.35
  Q 650.18 381.48 650.14 368.25
  Q 650.06 339.38 649.84 310.50
  Q 649.77 301.74 648.63 295.49
  C 647.65 290.14 639.51 288.75 635.12 288.93
  C 630.89 289.10 629.62 283.83 632.49 281.87
  Q 633.69 281.06 636.67 281.04
  Q 658.96 280.93 681.25 281.04
  C 685.07 281.06 684.52 286.00 682.96 287.66
  Q 681.97 288.72 679.28 288.93
  C 674.40 289.30 670.37 290.84 669.64 296.23
  Q 668.71 303.16 668.83 309.00
  Q 669.70 353.29 668.07 386.00
  Q 667.54 396.72 664.02 407.90
  C 656.20 432.70 637.60 448.44 611.00 450.81
  C 577.06 453.84 547.66 441.03 538.88 406.16
  Q 536.00 394.75 536.00 384.00
  Q 536.01 344.92 535.99 305.84
  C 535.99 302.64 535.49 299.63 534.92 296.57
  C 533.72 290.16 526.63 288.71 521.11 288.93
  C 516.77 289.10 515.64 283.58 518.67 281.76
  Q 519.88 281.04 522.96 281.03
  Q 534.86 281.01 546.75 280.99
  Q 546.89 280.99 547.05 281.04
  Q 547.30 281.11 547.56 281.11
  Z"
/>
<path fill="#402012" d="
  M 712.95 288.08
  C 709.92 286.86 710.60 282.94 712.80 281.68
  Q 713.89 281.06 716.81 281.05
  Q 739.78 280.93 762.75 281.03
  C 768.25 281.05 766.74 288.57 761.80 289.13
  Q 756.97 289.68 754.18 290.87
  A 1.43 1.42 -0.7 0 0 753.43 291.63
  Q 751.02 297.36 751.02 304.75
  C 750.97 342.98 751.71 381.36 750.30 419.56
  Q 750.16 423.18 750.55 426.41
  C 751.33 432.93 750.67 439.28 759.01 440.97
  Q 763.93 441.97 767.87 442.11
  C 770.74 442.20 771.38 443.36 771.06 446.05
  A 2.14 2.13 -86.5 0 1 768.93 447.94
  L 714.37 447.92
  Q 713.28 447.91 713.19 446.82
  L 712.88 442.86
  A 0.69 0.68 87.7 0 1 713.56 442.11
  C 718.26 442.12 723.10 441.94 725.68 437.62
  C 727.24 435.03 727.73 427.78 727.76 423.71
  Q 728.10 377.55 728.00 331.37
  C 727.97 320.07 727.35 309.06 726.72 297.91
  C 726.17 288.02 719.22 290.59 712.95 288.08
  Z"
/>
<path fill="#402012" d="
  M 431.95 437.08
  Q 410.38 428.58 388.27 421.55
  Q 383.20 419.93 378.03 418.68
  Q 374.59 417.84 373.03 414.99
  A 1.89 1.89 0.0 0 1 374.47 412.21
  Q 378.20 411.77 382.25 412.12
  Q 396.57 413.35 410.74 415.84
  Q 450.87 422.90 485.71 443.62
  Q 485.76 443.64 493.68 448.58
  Q 526.64 469.12 564.59 476.94
  Q 574.03 478.88 583.53 478.98
  Q 611.84 479.27 639.30 471.93
  Q 641.14 471.44 643.73 472.37
  A 0.70 0.70 0.0 0 1 644.20 473.02
  Q 644.22 474.87 642.69 475.69
  C 627.80 483.58 611.19 489.88 594.71 492.78
  Q 556.55 499.50 520.75 484.45
  Q 501.45 476.33 482.57 464.27
  C 466.06 453.73 448.44 443.58 431.95 437.08
  Z"
/>
<path fill="#402012" d="
  M 682.28 596.05
  C 686.00 592.94 690.24 587.66 694.47 593.63
  A 0.95 0.94 -67.6 0 0 696.17 592.92
  Q 694.82 585.08 699.63 579.10
  C 708.47 568.11 718.66 568.05 731.41 565.90
  Q 731.94 565.81 731.97 565.27
  Q 732.20 560.14 732.08 555.26
  Q 731.98 551.01 727.76 550.87
  Q 723.10 550.71 718.27 551.27
  A 1.19 1.19 0.0 0 0 717.41 553.10
  Q 722.97 561.63 714.59 567.59
  Q 712.02 569.42 708.30 568.55
  C 697.22 565.97 700.12 551.74 707.20 546.53
  C 714.83 540.91 723.20 541.97 732.33 541.93
  C 740.33 541.90 746.20 543.15 749.41 550.46
  Q 750.72 553.45 750.90 559.75
  Q 751.33 574.88 750.90 591.25
  A 0.98 0.98 0.0 0 0 752.69 591.82
  Q 754.85 588.62 759.17 590.81
  C 762.38 592.44 760.99 598.74 759.53 601.16
  C 754.42 609.67 742.28 612.16 735.04 604.62
  A 1.64 1.64 0.0 0 0 732.96 604.38
  C 721.92 611.53 702.88 611.79 696.31 597.98
  Q 696.01 597.34 695.66 597.96
  C 694.57 599.91 693.86 601.74 692.18 603.16
  C 684.50 609.65 667.24 613.09 662.37 601.77
  Q 661.01 598.59 661.01 588.57
  Q 661.01 571.26 660.97 552.98
  A 1.08 1.07 87.8 0 0 659.82 551.91
  C 657.01 552.11 653.95 550.95 653.95 547.84
  C 653.95 545.50 653.60 543.72 655.99 543.03
  Q 658.74 542.24 661.59 541.83
  Q 662.19 541.74 662.24 541.12
  L 663.32 526.66
  A 1.76 1.76 0.0 0 1 665.07 525.04
  L 676.91 525.01
  Q 678.96 525.00 678.95 527.05
  Q 678.93 533.10 679.15 539.00
  C 679.23 541.17 680.35 541.95 682.50 541.95
  Q 685.97 541.95 689.66 542.86
  C 691.94 543.42 691.96 544.87 692.11 546.99
  C 692.53 553.06 684.56 552.08 680.81 551.97
  A 0.77 0.77 0.0 0 0 680.02 552.74
  Q 679.98 572.12 679.97 591.50
  Q 679.97 593.87 681.61 595.97
  Q 681.91 596.36 682.28 596.05
  Z
  M 726.31 594.33
  C 731.37 591.69 732.22 589.47 732.08 583.70
  Q 732.01 580.80 731.98 577.99
  A 0.91 0.91 0.0 0 0 731.13 577.08
  C 725.29 576.69 717.05 579.05 714.67 584.85
  Q 712.85 589.27 717.07 593.42
  Q 720.87 597.16 726.31 594.33
  Z"
/>
<path fill="#402012" d="
  M 1046.19 596.17
  A 1.82 1.81 -65.4 0 0 1048.03 595.48
  C 1049.84 593.05 1052.90 590.51 1056.12 591.65
  C 1060.69 593.25 1061.04 598.09 1057.49 601.68
  Q 1049.31 609.95 1038.44 608.86
  C 1031.40 608.15 1025.72 604.00 1025.84 596.52
  Q 1026.12 577.74 1025.92 559.00
  C 1025.90 557.29 1027.23 554.89 1026.49 553.00
  C 1025.52 550.50 1020.84 550.98 1018.92 550.74
  A 0.89 0.89 0.0 0 1 1018.13 549.88
  L 1017.98 545.00
  A 1.84 1.84 0.0 0 1 1019.77 543.10
  L 1025.13 542.95
  A 1.88 1.88 0.0 0 0 1026.96 541.08
  L 1027.08 526.96
  Q 1027.09 525.02 1029.03 525.02
  L 1041.00 525.01
  A 1.94 1.94 0.0 0 1 1042.94 526.94
  L 1043.03 541.01
  A 1.98 1.98 0.0 0 0 1045.01 542.98
  L 1054.00 543.00
  A 2.00 1.99 0.3 0 1 1055.99 545.00
  L 1055.99 549.00
  A 2.00 2.00 0.0 0 1 1054.00 550.99
  L 1046.24 551.01
  A 2.25 2.25 0.0 0 0 1044.00 553.25
  Q 1043.93 573.27 1044.18 593.50
  Q 1044.21 595.73 1046.19 596.17
  Z"
/>
<path fill="#402012" d="
  M 512.06 545.45
  C 519.88 538.98 533.13 537.76 536.68 549.81
  C 538.87 557.24 531.08 562.33 524.65 560.88
  C 521.75 560.22 519.97 557.44 517.97 555.35
  A 0.73 0.72 39.1 0 0 516.83 555.46
  C 512.91 561.74 512.47 567.40 512.01 575.71
  Q 511.46 585.70 512.34 593.00
  Q 512.53 594.60 513.94 595.41
  C 516.38 596.82 519.69 594.93 521.82 597.17
  C 523.43 598.87 523.30 601.89 522.90 603.86
  C 521.87 608.94 510.88 607.65 506.51 607.23
  Q 503.53 606.94 496.55 607.56
  C 492.36 607.93 489.03 607.59 485.22 606.64
  A 2.38 2.37 -3.3 0 1 483.57 605.18
  Q 481.91 600.91 484.10 597.00
  A 1.22 1.22 0.0 0 1 484.98 596.39
  C 488.24 595.91 492.70 596.19 492.79 591.55
  Q 493.12 573.02 492.96 554.05
  A 1.81 1.81 0.0 0 0 491.46 552.28
  C 489.46 551.93 486.99 552.18 485.27 551.25
  C 481.94 549.45 482.45 544.40 485.78 542.68
  Q 487.05 542.02 489.32 542.05
  Q 496.23 542.13 503.07 541.32
  C 507.09 540.85 509.40 542.02 511.34 545.33
  Q 511.62 545.81 512.06 545.45
  Z"
/>
<path fill="#402012" d="
  M 554.59 575.51
  Q 554.54 581.50 556.03 587.80
  Q 557.20 592.74 559.71 595.07
  C 565.55 600.50 575.44 597.51 580.33 592.19
  C 582.43 589.90 584.31 586.35 586.10 583.33
  A 1.76 1.69 -85.4 0 1 586.90 582.62
  Q 590.48 581.06 593.99 582.80
  Q 594.46 583.03 594.64 583.52
  C 598.13 592.77 587.86 603.57 580.48 606.74
  Q 572.17 610.30 561.69 608.96
  Q 550.85 607.57 542.09 598.69
  C 535.17 591.68 533.58 585.50 533.60 575.54
  Q 533.63 560.46 545.04 549.29
  Q 556.07 538.50 571.22 541.25
  Q 594.51 545.48 596.01 568.75
  Q 596.35 574.04 590.76 574.06
  Q 573.61 574.10 556.18 573.94
  Q 554.61 573.93 554.59 575.51
  Z
  M 575.00 559.51
  C 575.10 546.83 556.60 548.44 555.41 560.90
  Q 555.35 561.47 555.90 561.63
  Q 556.99 561.94 558.75 561.95
  Q 565.34 561.98 571.95 561.98
  C 573.78 561.99 574.99 561.51 575.00 559.51
  Z"
/>
<path fill="#402012" d="
  M 635.26 587.14
  Q 632.60 585.51 630.75 585.02
  Q 617.31 581.46 611.25 579.55
  C 598.64 575.59 596.92 559.26 603.68 549.77
  Q 607.35 544.62 613.83 542.29
  Q 620.46 539.91 626.96 541.29
  C 629.12 541.75 633.76 544.06 636.93 543.48
  C 641.31 542.68 644.54 542.15 644.86 548.02
  C 645.07 551.98 647.37 567.16 638.68 564.77
  C 634.35 563.57 633.34 556.90 630.35 554.00
  C 625.51 549.31 615.06 549.03 612.92 557.07
  Q 612.79 557.54 613.00 557.98
  C 614.57 561.42 626.81 563.52 630.52 564.34
  Q 637.87 565.95 640.24 567.17
  C 644.87 569.56 650.74 574.51 650.92 580.26
  C 651.07 584.96 651.53 590.40 649.99 594.64
  C 644.35 610.26 625.46 611.98 612.37 605.64
  Q 611.22 605.08 610.09 605.70
  C 605.94 607.97 599.36 607.98 599.63 601.49
  Q 600.00 592.53 600.14 583.79
  A 2.22 2.22 0.0 0 1 601.34 581.85
  Q 605.86 579.49 610.03 582.32
  Q 610.43 582.59 610.60 583.04
  C 613.67 591.09 621.78 602.28 632.13 596.95
  C 635.03 595.45 639.90 589.97 635.26 587.14
  Z"
/>
<path fill="#402012" d="
  M 831.71 600.48
  Q 832.62 594.95 838.53 596.09
  A 2.03 2.02 5.8 0 0 840.94 594.13
  C 841.07 581.78 840.39 569.06 841.26 556.84
  Q 841.43 554.33 840.77 551.91
  Q 840.62 551.38 840.07 551.32
  L 834.37 550.79
  A 1.41 1.40 -87.5 0 1 833.10 549.40
  L 833.07 544.64
  A 1.36 1.36 0.0 0 1 834.35 543.27
  L 855.61 541.97
  A 2.07 2.06 -10.3 0 1 857.70 543.41
  L 858.33 545.40
  A 1.15 1.15 0.0 0 0 860.09 546.00
  C 862.49 544.30 864.43 542.33 867.50 542.09
  C 873.51 541.63 882.38 540.34 883.89 548.75
  Q 884.50 552.16 883.57 555.50
  C 881.50 562.97 868.13 562.32 866.60 554.21
  A 0.49 0.49 0.0 0 0 865.73 553.99
  Q 861.28 559.49 860.35 566.76
  Q 859.48 573.50 860.01 591.51
  C 860.08 594.11 859.67 596.06 863.16 595.96
  C 866.95 595.86 869.95 595.94 870.85 600.22
  C 872.02 605.81 869.45 607.02 864.44 607.01
  Q 850.81 607.01 837.25 606.96
  Q 832.78 606.95 831.74 603.41
  Q 831.48 602.55 831.25 603.42
  C 830.52 606.11 828.99 606.94 826.18 606.95
  Q 818.29 606.99 810.49 607.88
  C 807.26 608.25 805.57 607.14 804.58 604.24
  Q 804.39 603.66 803.88 603.99
  Q 790.25 612.87 775.04 606.90
  C 768.27 604.23 767.01 599.36 767.01 592.13
  Q 767.02 572.74 766.98 553.29
  A 1.36 1.35 -82.5 0 0 765.98 551.98
  L 761.04 550.67
  Q 760.43 550.51 760.29 549.90
  C 759.86 548.05 759.15 543.12 762.13 543.15
  C 768.30 543.22 774.93 542.38 781.20 541.87
  A 2.48 2.47 78.3 0 1 783.73 543.54
  Q 784.58 546.03 784.67 549.75
  Q 785.11 568.50 784.98 587.25
  C 784.86 603.26 799.52 596.18 802.74 588.26
  Q 804.05 585.05 804.05 576.10
  Q 804.05 564.76 803.97 553.29
  Q 803.96 552.18 802.89 551.92
  L 798.26 550.78
  A 1.22 1.21 86.2 0 1 797.41 550.03
  C 796.78 548.38 796.15 543.30 799.04 543.18
  Q 809.40 542.74 819.56 541.91
  A 2.14 2.14 0.0 0 1 821.87 543.91
  C 822.12 547.78 822.75 551.74 822.83 555.38
  Q 823.28 576.10 822.97 591.00
  Q 822.92 593.28 823.48 594.99
  A 0.56 0.53 88.4 0 0 823.83 595.34
  L 829.90 597.24
  Q 830.57 597.45 830.72 598.13
  L 831.25 600.50
  Q 831.51 601.68 831.71 600.48
  Z"
/>
<path fill="#402012" d="
  M 972.31 548.10
  C 975.95 544.12 979.43 542.31 985.12 542.02
  C 993.97 541.56 1001.22 541.09 1006.44 547.14
  C 1009.78 551.00 1009.94 557.47 1009.99 562.50
  Q 1010.17 580.73 1009.99 591.75
  Q 1009.96 593.64 1010.44 595.09
  A 0.91 0.90 84.3 0 0 1011.19 595.71
  C 1013.40 595.97 1015.84 596.16 1017.10 598.22
  C 1018.83 601.05 1018.72 606.98 1013.99 607.01
  Q 1002.13 607.08 990.25 606.96
  Q 987.29 606.94 985.55 606.45
  A 1.20 1.19 -4.4 0 1 984.79 605.80
  Q 982.72 601.34 985.31 597.17
  A 0.58 0.57 -79.2 0 1 985.67 596.92
  L 990.96 595.59
  A 1.33 1.33 0.0 0 0 991.97 594.30
  Q 992.09 575.78 991.92 556.99
  Q 991.89 553.11 989.01 551.83
  C 983.94 549.58 977.91 555.75 975.86 559.81
  C 970.97 569.49 971.96 579.79 972.05 592.49
  Q 972.06 594.04 972.39 595.02
  A 0.72 0.71 88.3 0 0 972.88 595.49
  L 978.03 596.85
  Q 978.65 597.02 978.94 597.59
  Q 980.96 601.50 979.36 605.60
  A 1.29 1.28 -88.5 0 1 978.57 606.35
  Q 976.80 606.97 974.00 606.99
  Q 962.53 607.03 951.07 606.98
  C 947.92 606.97 945.99 605.96 945.89 602.65
  A 0.44 0.43 66.9 0 0 945.15 602.35
  C 938.09 609.36 930.36 611.78 921.82 605.15
  C 920.72 604.29 919.95 603.95 918.59 604.71
  Q 904.56 612.64 890.37 606.33
  C 884.79 603.85 881.77 597.94 881.78 592.07
  C 881.81 577.15 892.76 570.94 905.72 567.79
  C 909.36 566.91 914.12 567.12 918.38 565.97
  A 0.76 0.74 84.2 0 0 918.93 565.28
  Q 919.11 561.34 919.18 557.74
  C 919.35 548.64 909.29 549.26 903.37 551.39
  A 0.53 0.53 0.0 0 0 903.12 552.20
  Q 907.49 558.23 903.98 565.29
  C 902.45 568.36 896.20 568.23 893.50 567.97
  C 887.93 567.43 886.75 559.82 887.47 555.51
  Q 888.13 551.53 891.37 548.17
  C 898.20 541.09 908.13 541.70 918.72 541.85
  Q 925.34 541.95 928.59 543.53
  Q 936.63 547.45 936.89 558.51
  Q 937.27 574.62 936.92 591.17
  Q 936.84 594.62 938.63 592.02
  Q 939.64 590.55 941.94 590.13
  C 945.38 589.51 947.67 591.65 948.07 594.98
  Q 948.13 595.45 948.57 595.64
  Q 951.50 596.94 953.03 595.39
  Q 954.00 594.40 954.01 591.90
  Q 954.03 572.47 953.91 552.77
  A 1.61 1.60 2.6 0 0 952.46 551.19
  L 948.24 550.80
  A 0.85 0.84 -10.5 0 1 947.55 550.33
  C 946.86 548.99 946.59 545.07 947.59 543.69
  A 1.09 1.09 0.0 0 1 948.44 543.23
  Q 958.12 542.76 967.74 541.94
  C 972.23 541.56 970.33 545.65 971.53 548.00
  Q 971.84 548.61 972.31 548.10
  Z
  M 900.48 585.22
  C 897.66 592.56 906.76 598.38 912.90 594.42
  C 914.33 593.50 917.33 591.96 917.89 589.90
  Q 919.54 583.86 918.89 577.78
  A 0.81 0.81 0.0 0 0 918.16 577.06
  C 912.00 576.41 902.99 578.69 900.48 585.22
  Z"
/>
</svg>
